<?xml version="1.0" encoding="UTF-8" standalone="no"?>
<!DOCTYPE svg PUBLIC "-//W3C//DTD SVG 1.1//EN" "http://www.w3.org/Graphics/SVG/1.1/DTD/svg11.dtd">
<svg width="100%" height="100%" viewBox="0 0 180 181" version="1.1" xmlns="http://www.w3.org/2000/svg" xmlns:xlink="http://www.w3.org/1999/xlink" xml:space="preserve" xmlns:serif="http://www.serif.com/" style="fill-rule:evenodd;clip-rule:evenodd;stroke-linejoin:round;stroke-miterlimit:2;">
    <g id="Artboard1" transform="matrix(0.791299,0,0,0.960074,-4.81326,-7.06694)">
        <rect x="6.083" y="7.361" width="227.453" height="188.093" style="fill:none;"/>
        <g transform="matrix(0.109544,0,0,0.0902866,16.6823,93.2501)">
            <g>
                <path d="M32.34,15.43C38.81,9.02 47.98,5.82 56.99,5.6C66.94,5.36 76.79,7.2 86.43,9.49C103.27,13.74 119.61,19.79 135.51,26.74C140.65,28.82 144.54,32.93 148.83,36.29C174.42,58.23 198.89,81.44 223.55,104.41C275.69,153.32 327.28,202.8 379.29,251.85C391.53,263.33 403.71,274.88 416.27,286.01C398.99,289.69 381.95,294.5 365.28,300.34C316.29,254.51 266.99,209 217.42,163.78C203.04,150.74 188.7,137.66 173.99,124.99C165.16,117.16 154.86,111.29 144.79,105.24C130.71,97.09 116.25,89.49 101.06,83.62C94.27,81.11 87.29,78.88 80.05,78.2C63.65,77.73 47.24,78.33 30.87,79.45C28.83,66.98 26.97,54.47 24.97,41.99C23.36,32.69 25.52,22.27 32.34,15.43Z" style="fill:rgb(64,64,64);fill-rule:nonzero;stroke:white;stroke-width:11.54px;"/>
                <path d="M145.42,26.29C156.15,21.62 167.42,17.67 179.15,16.66C185.16,15.94 190.91,18.32 196.33,20.59C212.21,27.7 226.91,37.1 241.45,46.58C243.79,48.23 246.35,49.63 248.45,51.62C269.77,74.28 291.65,96.41 313.36,118.7C343,148.73 372.57,178.84 402.41,208.68C425.93,231.96 449.59,255.1 472.94,278.56C456.22,278.85 439.66,281.51 423.25,284.46C411.67,274.97 401.01,264.34 389.96,254.22C339.45,206.69 289.41,158.67 238.88,111.16C215.19,88.86 191.43,66.61 167.21,44.88C160.05,38.56 152.92,32.2 145.42,26.29Z" style="fill:rgb(64,64,64);fill-rule:nonzero;stroke:white;stroke-width:11.54px;"/>
                <path d="M255.23,50.52C263.51,49.71 272,49.91 280.03,52.24C287.19,54.03 292.54,59.49 298.2,63.88C325.77,87.23 351.67,112.45 377.91,137.26C397.25,155.53 416.23,174.19 436.09,191.9C450.2,203.08 462.15,216.64 474.22,229.92C488.15,245.56 501.69,261.54 515.02,277.7C503.48,277.57 491.86,278.55 480.37,278C451,248.6 421.21,219.62 391.85,190.21C352.37,150.33 312.88,110.45 273.84,70.13C267.63,63.6 261.25,57.22 255.23,50.52Z" style="fill:rgb(64,64,64);fill-rule:nonzero;stroke:white;stroke-width:11.54px;"/>
                <path d="M29.36,85.25C44.51,83.85 59.75,83.46 74.96,83.59C84.41,83.32 93.43,86.67 102.11,90.01C118.4,96.63 133.86,105.12 148.9,114.19C156.41,118.8 163.96,123.46 170.52,129.38C195.52,151.07 219.81,173.56 244.26,195.86C282.76,231.34 321.35,266.74 359.46,302.62C344.54,308.05 329.86,314.67 316.87,323.89C306.18,331.48 298.32,343.15 296.29,356.2C293.65,372.36 297.82,388.69 303.1,403.89C306.34,412.59 309.16,421.66 314.78,429.19C322.76,440.05 333.07,448.98 343.92,456.87C360.35,468.7 378.27,478.42 397.01,486.05C407.94,490.39 419.2,494.18 430.87,495.88C453.16,498.17 475.58,498.87 497.95,500.02C588.29,503.74 678.67,506.16 769.05,508.56C807.68,509.5 846.3,510.57 884.93,511.34C905.1,512.11 925.3,511.93 945.45,512.95C945.47,511.05 945.51,509.16 945.53,507.28C875.58,505.69 805.62,504.03 735.66,502.18C645.1,499.62 554.51,497.33 464.01,492.87C451.67,491.89 439.22,491.75 427,489.62C411.06,486.28 395.89,480.02 381.31,472.89C363.87,464.07 347.07,453.64 332.55,440.48C324.96,433.3 317.53,425.45 313.51,415.65C307.77,401.32 302.42,386.56 301.1,371.07C300.29,360.25 302.38,348.87 308.75,339.9C315.21,330.53 325.23,324.55 335.07,319.29C357.16,307.97 380.96,300.38 404.96,294.29C428.87,288.5 453.31,284.15 477.97,283.91C491.98,283.71 505.99,283.05 520,283.03C537.41,290.04 556.43,291.1 574.96,291.97C585.65,292.05 596.36,292.16 607.03,291.44C662.56,295.59 718.39,295.87 773.93,291.69C817.39,288.18 860.82,281.95 902.79,269.86C919.74,264.91 936.44,258.99 952.51,251.65C1002.57,229.64 1052.4,206.99 1103.49,187.46C1144.95,171.58 1188.04,159.9 1231.94,153.16C1284.1,144.99 1337.13,141.92 1389.87,145.03C1455.75,149.05 1521.83,163.14 1581.06,192.95C1600.31,202.45 1618.22,214.32 1636.28,225.86C1669.33,247.33 1702.13,269.36 1732.54,294.49C1745.66,305.24 1757.79,317.13 1769.31,329.56C1677.93,456.47 1586.49,583.34 1494.88,710.08C1454.49,696.66 1413.61,684.43 1371.9,675.8C1355.44,672.65 1338.78,669.71 1321.96,670.16C1313.13,670.56 1304.61,673.15 1296.04,675.08C1252.54,686.05 1209.38,698.27 1166.19,710.34C1080.05,734.55 994.08,759.37 907.96,783.68C887.05,789.5 866.19,795.5 845.14,800.8C818.55,806.86 791.28,811.6 763.92,809.75C748.19,808.41 732.12,804.95 718.76,796.15C697.2,782.68 676.35,768.11 655.46,753.64C592.83,709.83 530.99,664.91 469.56,619.45C435.54,594.22 401.66,568.8 368.11,542.95C340.18,521.33 312.22,499.71 285.53,476.55C270.22,463.48 257.43,447.84 244.27,432.69C205.84,387.25 168.87,340.61 132.46,293.54C107.6,261.29 83.05,228.79 59.28,195.72C44.09,174.42 28.91,153.05 15.44,130.6C11.54,123.8 7.34,116.98 5.36,109.32C11.56,99.75 19.68,91.32 29.36,85.25Z" style="fill:rgb(64,64,64);fill-rule:nonzero;stroke:white;stroke-width:11.54px;stroke-linecap:round;stroke-linejoin:miter;stroke-miterlimit:1;"/>
                <path d="M1827.39,327.6C1834.08,324.31 1841.75,323.07 1849.12,324.31C1858.2,325.56 1866.24,330.18 1874.62,333.56C1884.35,337.7 1894.38,341.08 1904.27,344.81C1907.63,346.26 1911.38,347.47 1913.85,350.35C1915.71,353.23 1914.16,356.67 1913.37,359.64C1910.38,367.91 1906.17,375.66 1902.48,383.61C1867.49,455.33 1831.06,526.33 1793.8,596.89C1773.23,635.74 1752.28,674.38 1730.78,712.72C1712.07,745.84 1693.05,778.8 1672.81,811.02C1661.04,829.61 1649.01,848.09 1635.59,865.54C1629.42,873.35 1623.16,881.22 1615.53,887.66C1612.97,889.62 1610.3,891.83 1607.04,892.35C1604.97,892.64 1603.95,890.58 1602.7,889.4C1578.47,863.29 1553.71,837.62 1531.08,810.09C1522.51,799.5 1514.03,788.77 1507.02,777.06C1503.89,771.67 1500.89,766.07 1499.62,759.92C1501.55,757.34 1503.38,754.68 1505.32,752.11L1508.82,747.25C1605.86,613.08 1702.57,478.66 1799.47,344.39C1809.79,340.59 1817.57,332.36 1827.39,327.6Z" style="fill:rgb(64,64,64);fill-rule:nonzero;"/>
            </g>
        </g>
        <g transform="matrix(2.90171,0,0,2.39161,-133.762,31.5232)">
            <g transform="matrix(13.0655,0,0,13.0655,66.112,21.6493)">
                <path d="M0.615,-0.87L0.265,-0.87C0.227,-0.87 0.197,-0.863 0.177,-0.843C0.157,-0.823 0.15,-0.793 0.15,-0.755L0.15,-0.115C0.15,-0.077 0.157,-0.047 0.177,-0.027C0.197,-0.007 0.227,-0 0.265,-0L0.615,-0C0.653,-0 0.683,-0.007 0.703,-0.027C0.723,-0.047 0.73,-0.077 0.73,-0.115L0.73,-0.755C0.73,-0.793 0.723,-0.823 0.703,-0.843C0.683,-0.863 0.653,-0.87 0.615,-0.87ZM0.27,-0.116L0.27,-0.754L0.61,-0.754L0.61,-0.116L0.27,-0.116Z" style="fill:rgb(72,199,116);fill-rule:nonzero;"/>
            </g>
            <g transform="matrix(13.0655,0,0,13.0655,77.6096,21.6493)">
                <path d="M0.673,-0.471C0.653,-0.491 0.623,-0.498 0.585,-0.498L0.58,-0.498L0.58,-0.755C0.58,-0.793 0.573,-0.823 0.553,-0.843C0.533,-0.863 0.503,-0.87 0.465,-0.87L0.178,-0.87C0.17,-0.87 0.163,-0.869 0.157,-0.863C0.151,-0.857 0.15,-0.85 0.15,-0.842L0.15,-0.028C0.15,-0.02 0.151,-0.013 0.157,-0.007C0.163,-0.001 0.17,-0 0.178,-0L0.585,-0C0.623,-0 0.653,-0.007 0.673,-0.027C0.693,-0.047 0.7,-0.077 0.7,-0.115L0.7,-0.383C0.7,-0.421 0.693,-0.451 0.673,-0.471ZM0.27,-0.754L0.46,-0.754L0.46,-0.498L0.27,-0.498L0.27,-0.754ZM0.58,-0.116L0.27,-0.116L0.27,-0.382L0.58,-0.382L0.58,-0.116Z" style="fill:rgb(85,47,188);fill-rule:nonzero;"/>
            </g>
            <g transform="matrix(13.0655,0,0,13.0655,88.454,21.6493)">
                <path d="M0.633,-0.109C0.627,-0.115 0.62,-0.116 0.612,-0.116L0.27,-0.116L0.27,-0.387L0.552,-0.387C0.56,-0.387 0.567,-0.388 0.573,-0.394C0.579,-0.4 0.58,-0.407 0.58,-0.415L0.58,-0.475C0.58,-0.483 0.579,-0.49 0.573,-0.496C0.567,-0.502 0.56,-0.503 0.552,-0.503L0.27,-0.503L0.27,-0.754L0.582,-0.754C0.59,-0.754 0.597,-0.755 0.603,-0.761C0.609,-0.767 0.61,-0.774 0.61,-0.782L0.61,-0.842C0.61,-0.85 0.609,-0.857 0.603,-0.863C0.597,-0.869 0.59,-0.87 0.582,-0.87L0.178,-0.87C0.17,-0.87 0.163,-0.869 0.157,-0.863C0.151,-0.857 0.15,-0.85 0.15,-0.842L0.15,-0.028C0.15,-0.02 0.151,-0.013 0.157,-0.007C0.163,-0.001 0.17,-0 0.178,-0L0.612,-0C0.62,-0 0.627,-0.001 0.633,-0.007C0.639,-0.013 0.64,-0.02 0.64,-0.028L0.64,-0.088C0.64,-0.096 0.639,-0.103 0.633,-0.109Z" style="fill:rgb(241,70,104);fill-rule:nonzero;"/>
            </g>
            <g transform="matrix(13.0655,0,0,13.0655,98.0964,21.6493)">
                <path d="M0.635,-0.87L0.567,-0.87C0.552,-0.87 0.54,-0.864 0.534,-0.85L0.367,-0.476L0.198,-0.85C0.192,-0.864 0.18,-0.87 0.165,-0.87L0.095,-0.87C0.074,-0.87 0.066,-0.857 0.075,-0.837L0.304,-0.346L0.304,-0.028C0.304,-0.02 0.305,-0.013 0.311,-0.007C0.317,-0.001 0.324,-0 0.332,-0L0.396,-0C0.404,-0 0.411,-0.001 0.417,-0.007C0.423,-0.013 0.424,-0.02 0.424,-0.028L0.424,-0.342L0.655,-0.837C0.664,-0.857 0.656,-0.87 0.635,-0.87Z" style="fill:rgb(255,221,87);fill-rule:nonzero;"/>
            </g>
        </g>
    </g>
</svg>
